<svg width="12" height="12" viewBox="0 0 12 12" fill="none" xmlns="http://www.w3.org/2000/svg">
<path d="M11.3779 0.167702C11.2776 0.123452 11.1695 0.0994422 11.0599 0.09705L5.17223 0.0970494C5.06244 0.0970494 4.95372 0.118675 4.85229 0.16069C4.75085 0.202706 4.65868 0.264289 4.58105 0.341924C4.42426 0.498715 4.33617 0.711369 4.33617 0.933104C4.33617 1.0429 4.3578 1.15161 4.39982 1.25305C4.44183 1.35448 4.50341 1.44665 4.58105 1.52428C4.73784 1.68107 4.95049 1.76916 5.17223 1.76916L9.05223 1.76327L0.340818 10.4747C0.184666 10.6308 0.0969411 10.8426 0.0969411 11.0634C0.0969411 11.2843 0.184666 11.4961 0.340818 11.6522C0.49697 11.8084 0.708756 11.8961 0.929588 11.8961C1.15042 11.8961 1.36221 11.8084 1.51836 11.6522L10.2298 2.94081L10.2239 6.82081C10.2234 6.93073 10.2447 7.03965 10.2866 7.14128C10.3285 7.24292 10.39 7.33527 10.4677 7.41299C10.5455 7.49072 10.6378 7.55228 10.7395 7.59414C10.8411 7.636 10.95 7.65731 11.0599 7.65686C11.1699 7.65731 11.2788 7.636 11.3804 7.59414C11.482 7.55228 11.5744 7.49072 11.6521 7.41299C11.7298 7.33527 11.7914 7.24292 11.8333 7.14128C11.8751 7.03965 11.8964 6.93073 11.896 6.82081V0.933104C11.8936 0.823508 11.8696 0.715462 11.8253 0.615168C11.7409 0.412937 11.5801 0.252157 11.3779 0.167702Z" fill="white" style="fill:white;fill-opacity:1;"/>
</svg>
