<svg width="223" height="49" viewBox="0 0 223 49" fill="none" xmlns="http://www.w3.org/2000/svg">
<path d="M32 1.5L21.5 12V42M32 1.5L39.5 4.5V47.5H32.5H32M32 1.5V47.5M6.5 9.5L1 13V47.5H6.5M6.5 9.5L16 16.5V42M6.5 9.5V47.5M16 42L6.5 47.5M16 42H21.5M6.5 47.5H32M21.5 42L32 47.5" stroke="#0933C9" stroke-width="1.5"/>
<path d="M53.944 43L48.3413 11.4959H50.901L53.049 23.9901L55.3044 37.3078H55.3223L57.3271 23.9901L59.2424 11.4959H61.8022L56.7185 43H53.944ZM65.6507 43V11.4959H68.3178V43H65.6507ZM78.6998 43.358C77.4468 43.358 76.4504 43.1074 75.7105 42.6062C74.9826 42.0931 74.4396 41.395 74.0816 40.5119C73.7236 39.6169 73.4909 38.5846 73.3835 37.4152C73.2761 36.2338 73.2224 34.9748 73.2224 33.6383V30.3805H75.8358V33.5846C75.8358 36.2815 76.0267 38.2207 76.4086 39.4021C76.8024 40.5835 77.6198 41.1742 78.8609 41.1742C79.7321 41.1742 80.3526 40.9594 80.7225 40.5298C81.1044 40.1002 81.3431 39.426 81.4385 38.5071C81.534 37.5882 81.5817 36.3889 81.5817 34.9092C81.5817 33.2862 81.3789 31.9795 80.9731 30.9891C80.5793 29.9867 79.8693 29.0141 78.843 28.0713L76.9814 26.3529C76.4086 25.8279 75.8119 25.2193 75.1914 24.5271C74.5709 23.835 74.0458 23.0295 73.6162 22.1106C73.1866 21.1798 72.9718 20.1118 72.9718 18.9065C72.9718 17.391 73.1031 16.0485 73.3656 14.879C73.6401 13.6976 74.1711 12.7728 74.9587 12.1045C75.7582 11.4243 76.9516 11.0842 78.5387 11.0842C79.8275 11.0842 80.8299 11.3348 81.5459 11.836C82.2619 12.3252 82.7751 13.0114 83.0853 13.8945C83.4075 14.7776 83.6044 15.8038 83.676 16.9733C83.7476 18.1428 83.7834 19.4077 83.7834 20.7681V22.5402H81.4027V20.5712C81.4027 18.638 81.3132 17.1523 81.1342 16.1141C80.9672 15.064 80.6808 14.336 80.275 13.9303C79.8693 13.5246 79.3025 13.3217 78.5745 13.3217C77.8824 13.3217 77.3155 13.4589 76.874 13.7334C76.4444 14.0079 76.1282 14.515 75.9253 15.2549C75.7344 15.9828 75.6389 17.0509 75.6389 18.459C75.6389 19.4614 75.7523 20.2729 75.979 20.8934C76.2057 21.502 76.5518 22.0569 77.0172 22.5581C77.4826 23.0593 78.0614 23.656 78.7535 24.3481L80.4898 26.0665C81.6832 27.236 82.614 28.5308 83.2822 29.9509C83.9624 31.3709 84.3025 33.1192 84.3025 35.1956C84.3025 36.7946 84.1653 38.2087 83.8908 39.4379C83.6164 40.667 83.0794 41.6277 82.2798 42.3198C81.4803 43.0119 80.287 43.358 78.6998 43.358ZM88.5628 43V11.4959H91.2299V43H88.5628ZM97.9603 43V13.5723H94.6667V11.4959H103.563V13.5723H100.61V43H97.9603Z" fill="#0933C9"/>
<path d="M110.51 43V15.6487H106.822V11.4959H118.833V15.6487H115.289V43H110.51ZM128.159 43.358C126.524 43.358 125.188 43.0119 124.149 42.3198C123.123 41.6277 122.365 40.6014 121.876 39.241C121.387 37.8806 121.142 36.198 121.142 34.1932V19.7836C121.142 17.9697 121.381 16.4184 121.858 15.1296C122.336 13.8408 123.093 12.8503 124.132 12.1582C125.17 11.466 126.53 11.12 128.213 11.12C129.478 11.12 130.546 11.3169 131.417 11.7107C132.288 12.1045 132.992 12.6773 133.529 13.4291C134.066 14.169 134.454 15.0759 134.693 16.1499C134.943 17.212 135.069 18.4232 135.069 19.7836V34.1932C135.069 36.198 134.83 37.8806 134.353 39.241C133.887 40.6014 133.147 41.6277 132.133 42.3198C131.119 43.0119 129.794 43.358 128.159 43.358ZM128.159 39.2052C128.756 39.2052 129.203 39.0262 129.502 38.6682C129.8 38.3102 129.997 37.7672 130.092 37.0393C130.2 36.2994 130.253 35.3686 130.253 34.2469V19.5688C130.253 18.1965 130.122 17.1404 129.86 16.4005C129.609 15.6487 129.06 15.2728 128.213 15.2728C127.342 15.2728 126.751 15.6368 126.441 16.3647C126.13 17.0807 125.975 18.1428 125.975 19.5509V34.2469C125.975 35.3925 126.023 36.3352 126.118 37.0751C126.226 37.803 126.435 38.34 126.745 38.6861C127.067 39.0322 127.539 39.2052 128.159 39.2052ZM139.436 43V11.4959H147.366C149.013 11.4959 150.242 11.8181 151.053 12.4625C151.865 13.1069 152.396 14.0496 152.646 15.2907C152.909 16.5318 153.04 18.0473 153.04 19.8373C153.04 21.687 152.849 23.1429 152.467 24.2049C152.097 25.2551 151.334 25.9591 150.176 26.3171C150.725 26.4126 151.185 26.6393 151.554 26.9973C151.924 27.3434 152.223 27.8565 152.449 28.5367C152.676 29.205 152.837 30.0702 152.933 31.1323C153.04 32.1824 153.094 33.4712 153.094 34.9987C153.094 35.118 153.094 35.4521 153.094 36.0011C153.094 36.55 153.094 37.2004 153.094 37.9522C153.106 38.6921 153.118 39.4319 153.13 40.1718C153.142 40.9117 153.16 41.5441 153.183 42.0692C153.207 42.5943 153.237 42.9045 153.273 43H148.476C148.44 42.9403 148.41 42.636 148.386 42.0871C148.374 41.5262 148.356 40.8162 148.332 39.957C148.321 39.0978 148.309 38.1729 148.297 37.1825C148.297 36.192 148.297 35.2194 148.297 34.2648C148.297 33.2982 148.297 32.4449 148.297 31.7051C148.297 30.7623 148.225 30.0523 148.082 29.5749C147.951 29.0857 147.7 28.7456 147.33 28.5546C146.972 28.3637 146.453 28.2503 145.773 28.2145L144.233 28.125V43H139.436ZM144.251 24.4018H146.167C146.751 24.4018 147.193 24.2706 147.491 24.008C147.801 23.7455 148.01 23.2622 148.118 22.5581C148.237 21.8541 148.297 20.8397 148.297 19.5151V19.3182C148.297 18.2084 148.243 17.3552 148.136 16.7585C148.028 16.1618 147.801 15.7501 147.455 15.5234C147.121 15.2967 146.596 15.1833 145.88 15.1833H144.251V24.4018ZM163.816 43.358C162.181 43.358 160.845 43.0119 159.806 42.3198C158.78 41.6277 158.022 40.6014 157.533 39.241C157.044 37.8806 156.799 36.198 156.799 34.1932V19.7836C156.799 17.9697 157.038 16.4184 157.515 15.1296C157.993 13.8408 158.75 12.8503 159.789 12.1582C160.827 11.466 162.187 11.12 163.87 11.12C165.135 11.12 166.203 11.3169 167.074 11.7107C167.945 12.1045 168.649 12.6773 169.186 13.4291C169.723 14.169 170.111 15.0759 170.35 16.1499C170.6 17.212 170.725 18.4232 170.725 19.7836V34.1932C170.725 36.198 170.487 37.8806 170.009 39.241C169.544 40.6014 168.804 41.6277 167.79 42.3198C166.775 43.0119 165.451 43.358 163.816 43.358ZM163.816 39.2052C164.413 39.2052 164.86 39.0262 165.159 38.6682C165.457 38.3102 165.654 37.7672 165.749 37.0393C165.857 36.2994 165.91 35.3686 165.91 34.2469V19.5688C165.91 18.1965 165.779 17.1404 165.517 16.4005C165.266 15.6487 164.717 15.2728 163.87 15.2728C162.999 15.2728 162.408 15.6368 162.098 16.3647C161.787 17.0807 161.632 18.1428 161.632 19.5509V34.2469C161.632 35.3925 161.68 36.3352 161.775 37.0751C161.883 37.803 162.092 38.34 162.402 38.6861C162.724 39.0322 163.195 39.2052 163.816 39.2052ZM175.093 43V11.4959H178.852L185.529 30.3984L185.189 21.8063V11.4959H189.503V43H186.102L179.246 23.4352L179.514 31.7051V43H175.093ZM195.893 43V15.6487H192.206V11.4959H204.216V15.6487H200.672V43H195.893ZM213.542 43.358C211.908 43.358 210.571 43.0119 209.533 42.3198C208.507 41.6277 207.749 40.6014 207.259 39.241C206.77 37.8806 206.526 36.198 206.526 34.1932V19.7836C206.526 17.9697 206.764 16.4184 207.242 15.1296C207.719 13.8408 208.477 12.8503 209.515 12.1582C210.553 11.466 211.914 11.12 213.596 11.12C214.861 11.12 215.929 11.3169 216.8 11.7107C217.671 12.1045 218.375 12.6773 218.912 13.4291C219.449 14.169 219.837 15.0759 220.076 16.1499C220.327 17.212 220.452 18.4232 220.452 19.7836V34.1932C220.452 36.198 220.213 37.8806 219.736 39.241C219.27 40.6014 218.531 41.6277 217.516 42.3198C216.502 43.0119 215.177 43.358 213.542 43.358ZM213.542 39.2052C214.139 39.2052 214.587 39.0262 214.885 38.6682C215.183 38.3102 215.38 37.7672 215.476 37.0393C215.583 36.2994 215.637 35.3686 215.637 34.2469V19.5688C215.637 18.1965 215.505 17.1404 215.243 16.4005C214.992 15.6487 214.443 15.2728 213.596 15.2728C212.725 15.2728 212.134 15.6368 211.824 16.3647C211.514 17.0807 211.359 18.1428 211.359 19.5509V34.2469C211.359 35.3925 211.406 36.3352 211.502 37.0751C211.609 37.803 211.818 38.34 212.128 38.6861C212.451 39.0322 212.922 39.2052 213.542 39.2052Z" fill="#0933C9"/>
</svg>
